<svg xmlns="http://www.w3.org/2000/svg" fill="none" viewBox="0 0 194 20" height="20" width="194">
<rect stroke="#DEDEDB" fill="white" rx="2" height="19" width="27.75" y="0.5" x="0.5"></rect>
<path fill="#253B80" d="M8.25 12.6992H6.95366C6.86495 12.6992 6.7895 12.7637 6.77567 12.8512L6.25136 16.1755C6.24094 16.2411 6.29174 16.3002 6.35827 16.3002H6.97716C7.06587 16.3002 7.14132 16.2357 7.15515 16.148L7.29656 15.2514C7.3102 15.1636 7.38584 15.0992 7.47436 15.0992H7.88474C8.73869 15.0992 9.2315 14.686 9.36027 13.8671C9.41825 13.5089 9.36273 13.2274 9.19492 13.0302C9.01071 12.8138 8.68387 12.6992 8.25 12.6992ZM8.39957 13.9133C8.32869 14.3785 7.97327 14.3785 7.62961 14.3785H7.43399L7.57122 13.5097C7.57937 13.4573 7.62486 13.4186 7.67794 13.4186H7.7676C8.0017 13.4186 8.22255 13.4186 8.33667 13.552C8.40465 13.6317 8.42553 13.7499 8.39957 13.9133ZM12.1251 13.8984H11.5043C11.4514 13.8984 11.4057 13.9371 11.3976 13.9897L11.3701 14.1633L11.3267 14.1004C11.1923 13.9053 10.8926 13.8401 10.5935 13.8401C9.90747 13.8401 9.32159 14.3597 9.20746 15.0885C9.14817 15.452 9.23246 15.7997 9.43869 16.0421C9.6279 16.265 9.89861 16.3579 10.2206 16.3579C10.7733 16.3579 11.0799 16.0025 11.0799 16.0025L11.0522 16.175C11.0418 16.241 11.0926 16.3001 11.1587 16.3001H11.7179C11.8069 16.3001 11.8819 16.2356 11.8959 16.1479L12.2314 14.0232C12.242 13.9578 12.1914 13.8984 12.1251 13.8984ZM11.2597 15.1067C11.1998 15.4613 10.9183 15.6994 10.5594 15.6994C10.3791 15.6994 10.235 15.6416 10.1426 15.532C10.0508 15.4233 10.0159 15.2683 10.0451 15.0959C10.1011 14.7442 10.3873 14.4984 10.7408 14.4984C10.917 14.4984 11.0604 14.5569 11.1547 14.6675C11.2493 14.7791 11.2869 14.9349 11.2597 15.1067ZM14.8075 13.8983H15.4313C15.5187 13.8983 15.5697 13.9963 15.52 14.068L13.4452 17.0629C13.4116 17.1114 13.3562 17.1403 13.2971 17.1403H12.6741C12.5863 17.1403 12.5351 17.0415 12.5859 16.9697L13.2319 16.0577L12.5448 14.0412C12.5211 13.9712 12.5728 13.8983 12.6474 13.8983H13.2604C13.34 13.8983 13.4103 13.9506 13.4333 14.0269L13.7979 15.2448L14.6584 13.9774C14.692 13.9279 14.748 13.8983 14.8075 13.8983Z" clip-rule="evenodd" fill-rule="evenodd"></path>
<path fill="#179BD7" d="M21.5706 16.1756L22.1027 12.7906C22.1108 12.7381 22.1563 12.6994 22.2092 12.6992H22.8082C22.8743 12.6992 22.9251 12.7585 22.9147 12.8241L22.39 16.1482C22.3763 16.2359 22.3009 16.3004 22.212 16.3004H21.6771C21.611 16.3004 21.5602 16.2412 21.5706 16.1756ZM17.4961 12.6994H16.1996C16.1111 12.6994 16.0356 12.7639 16.0218 12.8514L15.4975 16.1756C15.487 16.2412 15.5378 16.3004 15.604 16.3004H16.2693C16.3311 16.3004 16.384 16.2553 16.3937 16.1939L16.5425 15.2516C16.5561 15.1638 16.6318 15.0994 16.7203 15.0994H17.1304C17.9846 15.0994 18.4773 14.6862 18.6062 13.8673C18.6643 13.509 18.6084 13.2276 18.4407 13.0304C18.2566 12.814 17.93 12.6994 17.4961 12.6994ZM17.6457 13.9135C17.575 14.3787 17.2196 14.3787 16.8757 14.3787H16.6803L16.8177 13.5099C16.8259 13.4575 16.871 13.4188 16.9242 13.4188H17.0139C17.2478 13.4188 17.4689 13.4188 17.5829 13.5522C17.651 13.6319 17.6717 13.7501 17.6457 13.9135ZM21.3709 13.8986H20.7505C20.6972 13.8986 20.6519 13.9373 20.644 13.9898L20.6165 14.1634L20.5729 14.1005C20.4385 13.9054 20.1391 13.8403 19.8399 13.8403C19.1539 13.8403 18.5682 14.3598 18.454 15.0887C18.3949 15.4522 18.4789 15.7998 18.6851 16.0423C18.8747 16.2652 19.145 16.3581 19.467 16.3581C20.0198 16.3581 20.3262 16.0026 20.3262 16.0026L20.2986 16.1752C20.2882 16.2412 20.339 16.3003 20.4055 16.3003H20.9645C21.053 16.3003 21.1284 16.2358 21.1423 16.1481L21.478 14.0233C21.4883 13.958 21.4375 13.8986 21.3709 13.8986ZM20.5056 15.1069C20.4461 15.4615 20.1642 15.6996 19.8052 15.6996C19.6253 15.6996 19.4809 15.6418 19.3883 15.5322C19.2966 15.4234 19.2621 15.2685 19.291 15.0961C19.3472 14.7444 19.6331 14.4986 19.9866 14.4986C20.1629 14.4986 20.3062 14.5571 20.4006 14.6676C20.4955 14.7793 20.5331 14.9351 20.5056 15.1069Z" clip-rule="evenodd" fill-rule="evenodd"></path>
<path fill="#253B80" d="M13.047 11.5115L13.2064 10.4992L12.8514 10.491H11.1562L12.3343 3.02112C12.3379 2.99857 12.3498 2.97754 12.3672 2.96261C12.3846 2.94768 12.4069 2.93945 12.43 2.93945H15.2884C16.2373 2.93945 16.8921 3.13692 17.2341 3.52667C17.3943 3.70951 17.4964 3.90057 17.5458 4.11083C17.5976 4.33147 17.5985 4.59505 17.5479 4.91655L17.5442 4.94001V5.146L17.7046 5.23682C17.8396 5.30842 17.9468 5.3904 18.0291 5.48426C18.1663 5.64058 18.255 5.83927 18.2924 6.07482C18.3311 6.31708 18.3183 6.60536 18.255 6.93173C18.1818 7.30716 18.0635 7.63413 17.9039 7.90168C17.757 8.14821 17.5699 8.35264 17.3478 8.51115C17.1356 8.66168 16.8836 8.77598 16.5987 8.84913C16.3226 8.92098 16.0078 8.95729 15.6626 8.95729H15.4401C15.2811 8.95729 15.1265 9.01457 15.0053 9.11729C14.8837 9.22212 14.8032 9.36528 14.7785 9.52194L14.7618 9.61308L14.4802 11.3972L14.4674 11.4627C14.4641 11.4835 14.4583 11.4939 14.4498 11.5009C14.4421 11.5072 14.4312 11.5115 14.4205 11.5115H13.047Z"></path>
<path fill="#179BD7" d="M17.8564 4.96289C17.8479 5.01743 17.8382 5.0732 17.8272 5.13049C17.4502 7.06583 16.1606 7.73441 14.5135 7.73441H13.6749C13.4735 7.73441 13.3038 7.88068 13.2724 8.07936L12.843 10.8025L12.7214 11.5743C12.701 11.7047 12.8016 11.8224 12.9332 11.8224H14.4206C14.5967 11.8224 14.7463 11.6944 14.774 11.5207L14.7887 11.4451L15.0688 9.6679L15.0868 9.57044C15.1141 9.39615 15.264 9.26816 15.4402 9.26816H15.6626C17.1037 9.26816 18.2318 8.68307 18.5616 6.98996C18.6993 6.28267 18.628 5.69211 18.2635 5.27676C18.1533 5.15151 18.0164 5.0476 17.8564 4.96289Z"></path>
<path fill="#222D65" d="M17.4632 4.80522C17.4056 4.78846 17.3462 4.77322 17.2852 4.75951C17.224 4.74611 17.1612 4.73422 17.0966 4.72386C16.8705 4.68729 16.6227 4.66992 16.3573 4.66992H14.1169C14.0618 4.66992 14.0094 4.68241 13.9625 4.70497C13.8591 4.75463 13.7824 4.85246 13.7638 4.97221L13.2871 7.99088L13.2734 8.07894C13.3048 7.88025 13.4746 7.73398 13.676 7.73398H14.5146C16.1617 7.73398 17.4513 7.0651 17.8283 5.13006C17.8395 5.07277 17.849 5.01701 17.8575 4.96247C17.7621 4.91188 17.6588 4.86861 17.5476 4.83173C17.5202 4.82259 17.4919 4.81376 17.4632 4.80522Z"></path>
<path fill="#253B80" d="M13.7617 4.97307C13.7803 4.85331 13.8571 4.75549 13.9604 4.70612C14.0076 4.68357 14.0597 4.67108 14.1148 4.67108H16.3553C16.6207 4.67108 16.8684 4.68845 17.0945 4.72502C17.1591 4.73538 17.2219 4.74726 17.2832 4.76067C17.3441 4.77439 17.4035 4.78962 17.4612 4.80638C17.4897 4.81491 17.5181 4.82375 17.5458 4.83259C17.657 4.86946 17.7604 4.91304 17.8557 4.96332C17.9679 4.24812 17.8548 3.76116 17.4682 3.32021C17.0419 2.83478 16.2724 2.62695 15.2878 2.62695H12.4294C12.2282 2.62695 12.0568 2.77322 12.0256 2.97221L10.8351 10.5189C10.8116 10.6682 10.9268 10.8029 11.0773 10.8029H12.842L13.2851 7.99173L13.7617 4.97307Z"></path>
<rect stroke="#DEDEDB" fill="white" rx="2" height="19" width="27.75" y="0.5" x="33.25"></rect>
<path fill="#172B85" d="M41.5315 13.5492H39.7898L38.4837 8.4943C38.4217 8.26177 38.2901 8.05621 38.0965 7.95932C37.6133 7.71584 37.0808 7.52207 36.5 7.42434V7.22973H39.3057C39.693 7.22973 39.9834 7.52207 40.0318 7.86159L40.7094 11.5079L42.4503 7.22973H44.1436L41.5315 13.5492ZM45.1117 13.5492H43.4668L44.8212 7.22973H46.4661L45.1117 13.5492ZM48.5942 8.98041C48.6426 8.64005 48.933 8.44544 49.2719 8.44544C49.8043 8.39657 50.3843 8.4943 50.8683 8.73694L51.1588 7.37633C50.6747 7.18171 50.1423 7.08398 49.6591 7.08398C48.0626 7.08398 46.9009 7.95932 46.9009 9.17418C46.9009 10.0984 47.7238 10.5837 48.3046 10.876C48.933 11.1675 49.175 11.3621 49.1266 11.6536C49.1266 12.0909 48.6426 12.2855 48.1594 12.2855C47.5786 12.2855 46.9977 12.1397 46.4661 11.8962L46.1757 13.2577C46.7565 13.5003 47.3849 13.5981 47.9658 13.5981C49.7559 13.6461 50.8683 12.7716 50.8683 11.459C50.8683 9.80605 48.5942 9.70916 48.5942 8.98041V8.98041ZM56.625 13.5492L55.319 7.22973H53.9161C53.6257 7.22973 53.3352 7.42434 53.2384 7.71584L50.8199 13.5492H52.5132L52.8512 12.6258H54.9317L55.1253 13.5492H56.625ZM54.1581 8.93155L54.6413 11.3133H53.2868L54.1581 8.93155Z" clip-rule="evenodd" fill-rule="evenodd"></path>
<rect stroke="#DEDEDB" fill="white" rx="2" height="19" width="27.75" y="0.5" x="66"></rect>
<path fill="#ED0006" d="M80.1423 14.6214C79.0453 15.5418 77.6223 16.0974 76.0673 16.0974C72.5978 16.0974 69.7852 13.3312 69.7852 9.91881C69.7852 6.50648 72.5978 3.74023 76.0673 3.74023C77.6223 3.74023 79.0453 4.29585 80.1423 5.21623C81.2393 4.29586 82.6623 3.74025 84.2172 3.74025C87.6868 3.74025 90.4994 6.5065 90.4994 9.91883C90.4994 13.3312 87.6868 16.0974 84.2172 16.0974C82.6623 16.0974 81.2393 15.5418 80.1423 14.6214Z" clip-rule="evenodd" fill-rule="evenodd"></path>
<path fill="#F9A000" d="M80.1406 14.6214C81.4914 13.4882 82.3479 11.8019 82.3479 9.91881C82.3479 8.03577 81.4914 6.34948 80.1406 5.21621C81.2376 4.29584 82.6606 3.74023 84.2155 3.74023C87.6851 3.74023 90.4977 6.50648 90.4977 9.91881C90.4977 13.3311 87.6851 16.0974 84.2155 16.0974C82.6606 16.0974 81.2376 15.5418 80.1406 14.6214Z" clip-rule="evenodd" fill-rule="evenodd"></path>
<path fill="#FF5E00" d="M80.1408 14.6219C81.4915 13.4887 82.348 11.8024 82.348 9.91937C82.348 8.03634 81.4915 6.35006 80.1408 5.2168C78.7901 6.35006 77.9336 8.03634 77.9336 9.91937C77.9336 11.8024 78.7901 13.4887 80.1408 14.6219Z" clip-rule="evenodd" fill-rule="evenodd"></path>
<rect stroke="#DEDEDB" fill="#1F72CD" rx="2" height="19" width="27.75" y="0.5" x="98.75"></rect>
<path fill="white" d="M103.43 7.02539L100.75 13.2199H103.959L104.357 12.2323H105.266L105.664 13.2199H109.196V12.4661L109.51 13.2199H111.337L111.652 12.4502V13.2199H118.998L119.891 12.2579L120.727 13.2199L124.5 13.2279L121.811 10.14L124.5 7.02539H120.786L119.916 7.96963L119.106 7.02539H111.115L110.429 8.62426L109.727 7.02539H106.525V7.75356L106.168 7.02539H103.43ZM114.399 7.90502H118.618L119.908 9.36039L121.239 7.90502H122.53L120.569 10.1391L122.53 12.3474H121.181L119.891 10.8751L118.552 12.3474H114.399V7.90502ZM115.441 9.63679V8.82536V8.82459H118.073L119.222 10.1223L118.022 11.4271H115.441V10.5412H117.742V9.63679H115.441ZM104.051 7.90502H105.615L107.393 12.1056V7.90502H109.107L110.48 10.9168L111.745 7.90502H113.45V12.35H112.413L112.404 8.86695L110.892 12.35H109.964L108.443 8.86695V12.35H106.309L105.905 11.3535H103.719L103.315 12.3491H102.172L104.051 7.90502ZM104.092 10.4323L104.812 8.6571L105.531 10.4323H104.092Z" clip-rule="evenodd" fill-rule="evenodd"></path>
<rect stroke="#DEDEDB" fill="#B2FCE4" rx="2" height="19" width="28.1667" y="0.5" x="131.5"></rect>
<path fill="#1C1C1C" d="M150.429 7.6171L149.019 6.81016L147.589 5.99099C146.643 5.44895 145.461 6.12955 145.461 7.22178V7.40517C145.461 7.50706 145.514 7.60079 145.604 7.6497L146.268 8.02872C146.452 8.13468 146.68 8.00019 146.68 7.78826V7.35219C146.68 7.13619 146.912 7.0017 147.1 7.10766L148.404 7.85755L149.704 8.60336C149.891 8.70932 149.891 8.98237 149.704 9.08833L148.404 9.83414L147.1 10.584C146.912 10.69 146.68 10.5555 146.68 10.3395V10.1235C146.68 9.03128 145.498 8.3466 144.553 8.89271L143.122 9.71188L141.712 10.5188C140.763 11.0649 140.763 12.4384 141.712 12.9845L143.122 13.7914L144.553 14.6106C145.498 15.1526 146.68 14.472 146.68 13.3798V13.1964C146.68 13.0945 146.627 13.0008 146.537 12.9519L145.873 12.5728C145.69 12.4669 145.461 12.6014 145.461 12.8133V13.2494C145.461 13.4654 145.229 13.5999 145.042 13.4939L143.738 12.744L142.438 11.9982C142.25 11.8922 142.25 11.6192 142.438 11.5132L143.738 10.7674L145.042 10.0175C145.229 9.91158 145.461 10.0461 145.461 10.2621V10.4781C145.461 11.5703 146.643 12.255 147.589 11.7089L149.019 10.8897L150.429 10.0827C151.379 9.53256 151.379 8.16321 150.429 7.6171Z"></path>
<rect stroke="#DEDEDB" fill="white" rx="2" height="19" width="28.1667" y="0.5" x="164.668"></rect>
<path fill="#AA8FFF" d="M175.062 8.20312L175.727 13.6111H182.228L181.563 8.20312H175.062Z"></path>
<path fill="#1A0826" d="M176.916 6.13911C177.331 6.5288 177.388 7.14177 177.043 7.5082C176.699 7.87462 176.083 7.85575 175.669 7.46602C175.254 7.07629 175.197 6.46332 175.542 6.09689C175.886 5.73049 176.501 5.74937 176.916 6.13911Z"></path>
<path fill="#1A0826" d="M189.037 10.1505C188.888 8.93419 187.932 8.19889 186.635 8.20314H182.312L182.977 13.6112H184.922L184.79 12.5296H186.848C188.467 12.5296 189.208 11.5206 189.037 10.1505ZM186.637 11.014L184.602 11.0162L184.442 9.71867L186.487 9.72079C186.968 9.7272 187.214 9.99656 187.255 10.3685C187.28 10.6057 187.171 11.014 186.637 11.014Z" clip-rule="evenodd" fill-rule="evenodd"></path>
<path fill="#1A0826" d="M168.291 12.0999L168.477 13.6111H174.971L174.757 11.8819H171.731L171.703 11.666L174.492 9.71865L174.306 8.20312H167.812L168.024 9.93453H171.057L171.085 10.1504L168.291 12.0999Z"></path>
</svg>
